<svg xmlns="http://www.w3.org/2000/svg" viewBox="0 0 64 64" role="img" aria-label="JuggerTopDown">
  <rect width="64" height="64" rx="14" fill="#0d1315"/>
  <path fill="#1f513c" d="M9 20 19 10h26l10 10v24L45 54H19L9 44Z"/>
  <path fill="none" stroke="#d9d3be" stroke-linejoin="round" stroke-width="3.5" d="M9 20 19 10h26l10 10v24L45 54H19L9 44Z"/>
  <path stroke="#f0d66a" stroke-linecap="round" stroke-width="4" d="M9 21v22M55 21v22"/>
  <path stroke="#d9d3be" stroke-dasharray="5 5" stroke-linecap="round" stroke-width="2.5" d="M32 13v38"/>
  <circle cx="21" cy="32" r="8" fill="#21a8a3" stroke="#0f4e58" stroke-width="3"/>
  <circle cx="43" cy="32" r="8" fill="#dd614a" stroke="#6e2f2a" stroke-width="3"/>
  <path fill="#0d1315" d="m24 32-8-4v8Z"/>
  <path fill="#0d1315" d="m40 32 8-4v8Z"/>
  <path stroke="#fff7d7" stroke-linecap="round" stroke-width="4" d="m18 44 28-24"/>
  <ellipse cx="32" cy="32" fill="#f0d66a" stroke="#5a3f16" stroke-width="2.5" rx="7" ry="5" transform="rotate(22 32 32)"/>
</svg>
